<svg xmlns="http://www.w3.org/2000/svg" viewBox="0 0 200 236"><ellipse cx="100" cy="224" rx="46" ry="8" fill="#000" opacity=".08"/><g fill="#e6b277"><circle cx="140.0" cy="186.0" r="13" fill="#e6b277"/><circle cx="136.0" cy="201.6" r="13" fill="#e6b277"/><circle cx="124.9" cy="214.1" r="13" fill="#e6b277"/><circle cx="108.9" cy="221.1" r="13" fill="#e6b277"/><circle cx="91.1" cy="221.1" r="13" fill="#e6b277"/><circle cx="75.1" cy="214.1" r="13" fill="#e6b277"/><circle cx="64.0" cy="201.6" r="13" fill="#e6b277"/><circle cx="60.0" cy="186.0" r="13" fill="#e6b277"/><circle cx="64.0" cy="170.4" r="13" fill="#e6b277"/><circle cx="75.1" cy="157.9" r="13" fill="#e6b277"/><circle cx="91.1" cy="150.9" r="13" fill="#e6b277"/><circle cx="108.9" cy="150.9" r="13" fill="#e6b277"/><circle cx="124.9" cy="157.9" r="13" fill="#e6b277"/><circle cx="136.0" cy="170.4" r="13" fill="#e6b277"/><ellipse cx="100" cy="186" rx="40" ry="36" fill="#e6b277"/></g><ellipse cx="82" cy="214" rx="13" ry="11" fill="#f0cb93"/><path d="M77 214 v6 M82 216 v6 M87 214 v6" stroke="#d39f5e" stroke-width="1.6" stroke-linecap="round" opacity=".7"/><ellipse cx="118" cy="214" rx="13" ry="11" fill="#f0cb93"/><path d="M113 214 v6 M118 216 v6 M123 214 v6" stroke="#d39f5e" stroke-width="1.6" stroke-linecap="round" opacity=".7"/><circle cx="100.0" cy="176.0" r="15.0" fill="#f0cb93"/><circle cx="86.0" cy="186.0" r="13.0" fill="#f0cb93"/><circle cx="114.0" cy="186.0" r="13.0" fill="#f0cb93"/><circle cx="100.0" cy="196.0" r="13.0" fill="#f0cb93"/><g><circle cx="58.0" cy="92" r="9.6" fill="#d39f5e"/><circle cx="52.0" cy="110" r="10.2" fill="#d39f5e"/><circle cx="54.0" cy="130" r="9.6" fill="#d39f5e"/><circle cx="57.0" cy="148" r="8.4" fill="#d39f5e"/><circle cx="52.0" cy="162" r="6.6" fill="#d39f5e"/><circle cx="64.0" cy="92" r="16" fill="#e6b277"/><circle cx="58.0" cy="110" r="17" fill="#e6b277"/><circle cx="60.0" cy="130" r="16" fill="#e6b277"/><circle cx="63.0" cy="148" r="14" fill="#e6b277"/><circle cx="58.0" cy="162" r="11" fill="#e6b277"/><circle cx="67.0" cy="90" r="6.4" fill="none" stroke="#d39f5e" stroke-width="1.5" opacity=".7"/><circle cx="61.0" cy="108" r="6.8" fill="none" stroke="#d39f5e" stroke-width="1.5" opacity=".7"/><circle cx="63.0" cy="128" r="6.4" fill="none" stroke="#d39f5e" stroke-width="1.5" opacity=".7"/><circle cx="66.0" cy="146" r="5.6" fill="none" stroke="#d39f5e" stroke-width="1.5" opacity=".7"/><circle cx="61.0" cy="160" r="4.4" fill="none" stroke="#d39f5e" stroke-width="1.5" opacity=".7"/></g><g><circle cx="142.0" cy="92" r="9.6" fill="#d39f5e"/><circle cx="148.0" cy="110" r="10.2" fill="#d39f5e"/><circle cx="146.0" cy="130" r="9.6" fill="#d39f5e"/><circle cx="143.0" cy="148" r="8.4" fill="#d39f5e"/><circle cx="148.0" cy="162" r="6.6" fill="#d39f5e"/><circle cx="136.0" cy="92" r="16" fill="#e6b277"/><circle cx="142.0" cy="110" r="17" fill="#e6b277"/><circle cx="140.0" cy="130" r="16" fill="#e6b277"/><circle cx="137.0" cy="148" r="14" fill="#e6b277"/><circle cx="142.0" cy="162" r="11" fill="#e6b277"/><circle cx="133.0" cy="90" r="6.4" fill="none" stroke="#d39f5e" stroke-width="1.5" opacity=".7"/><circle cx="139.0" cy="108" r="6.8" fill="none" stroke="#d39f5e" stroke-width="1.5" opacity=".7"/><circle cx="137.0" cy="128" r="6.4" fill="none" stroke="#d39f5e" stroke-width="1.5" opacity=".7"/><circle cx="134.0" cy="146" r="5.6" fill="none" stroke="#d39f5e" stroke-width="1.5" opacity=".7"/><circle cx="139.0" cy="160" r="4.4" fill="none" stroke="#d39f5e" stroke-width="1.5" opacity=".7"/></g><g transform="translate(2,4)"><circle cx="146.0" cy="108.0" r="14" fill="#d8a868"/><circle cx="142.5" cy="124.8" r="14" fill="#d8a868"/><circle cx="132.5" cy="139.1" r="14" fill="#d8a868"/><circle cx="117.6" cy="148.7" r="14" fill="#d8a868"/><circle cx="100.0" cy="152.0" r="14" fill="#d8a868"/><circle cx="82.4" cy="148.7" r="14" fill="#d8a868"/><circle cx="67.5" cy="139.1" r="14" fill="#d8a868"/><circle cx="57.5" cy="124.8" r="14" fill="#d8a868"/><circle cx="54.0" cy="108.0" r="14" fill="#d8a868"/><circle cx="57.5" cy="91.2" r="14" fill="#d8a868"/><circle cx="67.5" cy="76.9" r="14" fill="#d8a868"/><circle cx="82.4" cy="67.3" r="14" fill="#d8a868"/><circle cx="100.0" cy="64.0" r="14" fill="#d8a868"/><circle cx="117.6" cy="67.3" r="14" fill="#d8a868"/><circle cx="132.5" cy="76.9" r="14" fill="#d8a868"/><circle cx="142.5" cy="91.2" r="14" fill="#d8a868"/><ellipse cx="100" cy="108" rx="46" ry="44" fill="#d8a868"/></g><g fill="#e6b277"><circle cx="146.0" cy="108.0" r="15" fill="#e6b277"/><circle cx="142.5" cy="124.8" r="15" fill="#e6b277"/><circle cx="132.5" cy="139.1" r="15" fill="#e6b277"/><circle cx="117.6" cy="148.7" r="15" fill="#e6b277"/><circle cx="100.0" cy="152.0" r="15" fill="#e6b277"/><circle cx="82.4" cy="148.7" r="15" fill="#e6b277"/><circle cx="67.5" cy="139.1" r="15" fill="#e6b277"/><circle cx="57.5" cy="124.8" r="15" fill="#e6b277"/><circle cx="54.0" cy="108.0" r="15" fill="#e6b277"/><circle cx="57.5" cy="91.2" r="15" fill="#e6b277"/><circle cx="67.5" cy="76.9" r="15" fill="#e6b277"/><circle cx="82.4" cy="67.3" r="15" fill="#e6b277"/><circle cx="100.0" cy="64.0" r="15" fill="#e6b277"/><circle cx="117.6" cy="67.3" r="15" fill="#e6b277"/><circle cx="132.5" cy="76.9" r="15" fill="#e6b277"/><circle cx="142.5" cy="91.2" r="15" fill="#e6b277"/><ellipse cx="100" cy="108" rx="46" ry="44" fill="#e6b277"/></g><circle cx="132.0" cy="78.0" r="11" fill="#f0cb93"/><circle cx="122.6" cy="86.5" r="11" fill="#f0cb93"/><circle cx="100.0" cy="90.0" r="11" fill="#f0cb93"/><circle cx="77.4" cy="86.5" r="11" fill="#f0cb93"/><circle cx="68.0" cy="78.0" r="11" fill="#f0cb93"/><circle cx="77.4" cy="69.5" r="11" fill="#f0cb93"/><circle cx="100.0" cy="66.0" r="11" fill="#f0cb93"/><circle cx="122.6" cy="69.5" r="11" fill="#f0cb93"/><circle cx="119.6" cy="111.6" r="5.4" fill="none" stroke="#d39f5e" stroke-width="1.4" opacity=".4"/><circle cx="125.9" cy="124.1" r="5.0" fill="none" stroke="#d39f5e" stroke-width="1.4" opacity=".4"/><circle cx="111.7" cy="124.2" r="5.6" fill="none" stroke="#d39f5e" stroke-width="1.4" opacity=".4"/><circle cx="106.8" cy="140.0" r="5.0" fill="none" stroke="#d39f5e" stroke-width="1.4" opacity=".4"/><circle cx="94.4" cy="133.4" r="4.5" fill="none" stroke="#d39f5e" stroke-width="1.4" opacity=".4"/><circle cx="91.0" cy="120.3" r="4.7" fill="none" stroke="#d39f5e" stroke-width="1.4" opacity=".4"/><circle cx="75.0" cy="123.3" r="4.1" fill="none" stroke="#d39f5e" stroke-width="1.4" opacity=".4"/><circle cx="65.6" cy="114.2" r="4.5" fill="none" stroke="#d39f5e" stroke-width="1.4" opacity=".4"/><circle cx="78.8" cy="104.1" r="4.1" fill="none" stroke="#d39f5e" stroke-width="1.4" opacity=".4"/><circle cx="66.9" cy="87.5" r="5.5" fill="none" stroke="#d39f5e" stroke-width="1.4" opacity=".4"/><circle cx="79.6" cy="79.6" r="5.2" fill="none" stroke="#d39f5e" stroke-width="1.4" opacity=".4"/><circle cx="96.8" cy="92.8" r="4.7" fill="none" stroke="#d39f5e" stroke-width="1.4" opacity=".4"/><circle cx="105.6" cy="82.8" r="4.2" fill="none" stroke="#d39f5e" stroke-width="1.4" opacity=".4"/><circle cx="121.7" cy="78.4" r="4.7" fill="none" stroke="#d39f5e" stroke-width="1.4" opacity=".4"/><circle cx="116.4" cy="98.0" r="5.6" fill="none" stroke="#d39f5e" stroke-width="1.4" opacity=".4"/><circle cx="118.6" cy="104.7" r="5.9" fill="none" stroke="#d39f5e" stroke-width="1.4" opacity=".4"/><circle cx="74" cy="84" r="12" fill="#fff" opacity=".28"/><circle cx="80.0" cy="92.0" r="7.0" fill="#f0cb93"/><circle cx="120.0" cy="92.0" r="7.0" fill="#f0cb93"/><ellipse cx="80" cy="104" rx="11" ry="12.5" fill="#fffaf2"/><circle cx="80" cy="105.5" r="9" fill="#4a3422"/><circle cx="80" cy="106" r="5.2" fill="#2c1d12"/><circle cx="77" cy="101.5" r="3.2" fill="#fff"/><circle cx="83" cy="108" r="1.6" fill="#fff" opacity=".85"/><ellipse cx="120" cy="104" rx="11" ry="12.5" fill="#fffaf2"/><circle cx="120" cy="105.5" r="9" fill="#4a3422"/><circle cx="120" cy="106" r="5.2" fill="#2c1d12"/><circle cx="117" cy="101.5" r="3.2" fill="#fff"/><circle cx="123" cy="108" r="1.6" fill="#fff" opacity=".85"/><circle cx="64" cy="120" r="8" fill="#ef9f86" opacity=".45"/><circle cx="136" cy="120" r="8" fill="#ef9f86" opacity=".45"/><circle cx="84.0" cy="138.0" r="14.0" fill="#f6e6c8"/><circle cx="100.0" cy="144.0" r="16.0" fill="#f6e6c8"/><circle cx="116.0" cy="138.0" r="14.0" fill="#f6e6c8"/><circle cx="92.0" cy="150.0" r="11.0" fill="#f6e6c8"/><circle cx="108.0" cy="150.0" r="11.0" fill="#f6e6c8"/><circle cx="100.0" cy="131.0" r="14.0" fill="#f6e6c8"/><path d="M88 122 q12 -10 24 0 q0 11 -12 14 q-12 -3 -12 -14 z" fill="#37271a"/><ellipse cx="94" cy="122.5" rx="2.4" ry="1.5" fill="#fff" opacity=".55"/><path d="M100 136 v6" stroke="#37271a" stroke-width="2.4" fill="none" stroke-linecap="round"/><path d="M100 142 q-8 7 -14 1" stroke="#37271a" stroke-width="2.4" fill="none" stroke-linecap="round"/><path d="M100 142 q8 7 14 1" stroke="#37271a" stroke-width="2.4" fill="none" stroke-linecap="round"/><path d="M93 144 q7 11 14 0 z" fill="#ef8f8f"/><g transform="rotate(-3 100 80)"><g fill="#2a2f37"><rect x="66" y="72" width="29" height="17" rx="8.5"/><rect x="105" y="72" width="29" height="17" rx="8.5"/><rect x="93" y="77" width="14" height="4.5" rx="2"/></g><circle cx="75" cy="77" r="3" fill="#fff" opacity=".5"/><circle cx="114" cy="77" r="3" fill="#fff" opacity=".5"/></g><ellipse cx="100" cy="58" rx="62" ry="16" fill="#e7bd74"/><ellipse cx="100" cy="56" rx="60" ry="13" fill="#f0cd8c"/><path d="M68 58 q32 -40 64 0 z" fill="#edc784"/><path d="M68 58 q32 -40 64 0" fill="none" stroke="#dcab63" stroke-width="1.5"/><path d="M69 56 q31 13 62 0 l0 -7 q-31 11 -62 0 z" fill="#cf7f5a"/><circle cx="124" cy="50" r="4.4" fill="#f2d98a"/></svg>