<svg xmlns="http://www.w3.org/2000/svg" viewBox="0 0 560 250" font-family="Inter,system-ui,sans-serif"><rect width="560" height="250" fill="#FBF9F3"/><defs><marker id="aO" markerWidth="8" markerHeight="8" refX="6" refY="3" orient="auto"><path d="M0,0 L6,3 L0,6 z" fill="#D97B29"/></marker><marker id="aG" markerWidth="8" markerHeight="8" refX="6" refY="3" orient="auto"><path d="M0,0 L6,3 L0,6 z" fill="#0B5E5D"/></marker><marker id="aB" markerWidth="8" markerHeight="8" refX="6" refY="3" orient="auto"><path d="M0,0 L6,3 L0,6 z" fill="#3E87C0"/></marker><marker id="aR" markerWidth="8" markerHeight="8" refX="6" refY="3" orient="auto"><path d="M0,0 L6,3 L0,6 z" fill="#C0392B"/></marker><marker id="aK" markerWidth="8" markerHeight="8" refX="6" refY="3" orient="auto"><path d="M0,0 L6,3 L0,6 z" fill="#23211C"/></marker><pattern id="ins" patternUnits="userSpaceOnUse" width="8" height="8"><rect width="8" height="8" fill="#F3E4B4"/><path d="M0 8 L8 0" stroke="#D9B86A" stroke-width="1.6"/></pattern><pattern id="conc" patternUnits="userSpaceOnUse" width="14" height="14"><rect width="14" height="14" fill="#D8D3C8"/><circle cx="4" cy="5" r="1.2" fill="#a39d90"/><circle cx="10" cy="11" r="1.2" fill="#a39d90"/></pattern><pattern id="soil" patternUnits="userSpaceOnUse" width="12" height="12"><rect width="12" height="12" fill="#E4D9C3"/><circle cx="3" cy="4" r="1" fill="#c9bd9f"/><circle cx="9" cy="9" r="1" fill="#c9bd9f"/></pattern><pattern id="grav" patternUnits="userSpaceOnUse" width="10" height="10"><rect width="10" height="10" fill="#E8E2D4"/><circle cx="3" cy="3" r="1.6" fill="#a39d90"/><circle cx="8" cy="7" r="1.6" fill="#a39d90"/></pattern></defs><text x="280.0" y="32" font-size="14" fill="#23211C" text-anchor="middle" font-weight="700">Afskrivning: nyværdi → dagsværdi</text><text x="280" y="56" font-size="11" fill="#9a9281" text-anchor="middle" font-weight="500">Erstatning kan nedsættes for alder og slid</text><rect x="110" y="78" width="80" height="120" fill="#0B5E5D" stroke="#23211C" stroke-width="1.4" rx="0"/><text x="150.0" y="218" font-size="11" fill="#23211C" text-anchor="middle" font-weight="700">Nyværdi</text><text x="150.0" y="234" font-size="9" fill="#9a9281" text-anchor="middle" font-weight="500">(som ny)</text><rect x="370" y="78" width="80" height="64" fill="url(#ins)" stroke="#D9B86A" stroke-width="1.2" rx="0"/><rect x="370" y="142" width="80" height="56" fill="#0B5E5D" stroke="#23211C" stroke-width="1.4" rx="0"/><text x="410.0" y="114.0" font-size="9" fill="#23211C" text-anchor="middle" font-weight="500">afskrivn.</text><text x="410.0" y="174.0" font-size="10" fill="#fff" text-anchor="middle" font-weight="700">dags-</text><text x="410.0" y="190.0" font-size="10" fill="#fff" text-anchor="middle" font-weight="700">værdi</text><text x="410.0" y="218" font-size="11" fill="#23211C" text-anchor="middle" font-weight="700">Dagsværdi</text><text x="410.0" y="234" font-size="9" fill="#9a9281" text-anchor="middle" font-weight="500">(efter slid)</text><line x1="208" y1="138.0" x2="352" y2="138.0" stroke="#D97B29" stroke-width="2.4" marker-end="url(#aO)"/><text x="280.0" y="126.0" font-size="10" fill="#D97B29" text-anchor="middle" font-weight="700">ældre del</text></svg>