<svg xmlns="http://www.w3.org/2000/svg" viewBox="0 0 560 276" font-family="Inter,system-ui,sans-serif"><rect width="560" height="276" fill="#FBF9F3"/><defs><marker id="aO" markerWidth="8" markerHeight="8" refX="6" refY="3" orient="auto"><path d="M0,0 L6,3 L0,6 z" fill="#D97B29"/></marker><marker id="aB" markerWidth="8" markerHeight="8" refX="6" refY="3" orient="auto"><path d="M0,0 L6,3 L0,6 z" fill="#3E87C0"/></marker><marker id="aG" markerWidth="8" markerHeight="8" refX="6" refY="3" orient="auto"><path d="M0,0 L6,3 L0,6 z" fill="#0B5E5D"/></marker><pattern id="ins" patternUnits="userSpaceOnUse" width="8" height="8"><rect width="8" height="8" fill="#F3E4B4"/><path d="M0 8 L8 0" stroke="#D9B86A" stroke-width="1.6"/></pattern><pattern id="soil" patternUnits="userSpaceOnUse" width="12" height="12"><rect width="12" height="12" fill="#E4D9C3"/><circle cx="3" cy="4" r="1" fill="#c9bd9f"/><circle cx="9" cy="9" r="1" fill="#c9bd9f"/></pattern><pattern id="conc" patternUnits="userSpaceOnUse" width="14" height="14"><rect width="14" height="14" fill="#D8D3C8"/><circle cx="4" cy="5" r="1.2" fill="#a39d90"/><circle cx="10" cy="11" r="1.2" fill="#a39d90"/></pattern></defs><text x="280.0" y="32" font-size="14" fill="#23211C" text-anchor="middle" font-weight="700">Facade</text><polygon points="120,86 440,86 410,118 150,118" fill="#D08A66" stroke="#b06a45" stroke-width="1.4"/><text x="280" y="76" font-size="9" fill="#9a9281" text-anchor="middle" font-weight="500">tag / udhæng</text><rect x="150" y="118" width="260" height="120" fill="#EADCC8" stroke="#23211C" stroke-width="1.4" rx="0"/><text x="135" y="150" font-size="10" fill="#23211C" text-anchor="end" font-weight="500">facade</text><rect x="185" y="140" width="55" height="45" fill="#C3DCEA" stroke="#23211C" stroke-width="1.4" rx="0"/><line x1="212" y1="140" x2="212" y2="185" stroke="#23211C" stroke-width="1"/><line x1="185" y1="162" x2="240" y2="162" stroke="#23211C" stroke-width="1"/><rect x="300" y="140" width="55" height="45" fill="#C3DCEA" stroke="#23211C" stroke-width="1.4" rx="0"/><line x1="327" y1="140" x2="327" y2="185" stroke="#23211C" stroke-width="1"/><line x1="300" y1="162" x2="355" y2="162" stroke="#23211C" stroke-width="1"/><text x="212" y="205" font-size="9" fill="#9a9281" text-anchor="middle" font-weight="500">vinduer</text><rect x="255" y="196" width="40" height="42" fill="#C9A06B" stroke="#8a6b42" stroke-width="1.4" rx="0"/><text x="275" y="250" font-size="9" fill="#9a9281" text-anchor="middle" font-weight="500">dør</text><rect x="150" y="238" width="260" height="16" fill="url(#conc)" stroke="#23211C" stroke-width="1.4" rx="0"/><text x="135" y="250" font-size="10" fill="#23211C" text-anchor="end" font-weight="500">sokkel</text></svg>