<svg xmlns="http://www.w3.org/2000/svg" viewBox="0 0 560 276" font-family="Inter,system-ui,sans-serif"><rect width="560" height="276" fill="#FBF9F3"/><defs><marker id="aO" markerWidth="8" markerHeight="8" refX="6" refY="3" orient="auto"><path d="M0,0 L6,3 L0,6 z" fill="#D97B29"/></marker><marker id="aB" markerWidth="8" markerHeight="8" refX="6" refY="3" orient="auto"><path d="M0,0 L6,3 L0,6 z" fill="#3E87C0"/></marker><marker id="aG" markerWidth="8" markerHeight="8" refX="6" refY="3" orient="auto"><path d="M0,0 L6,3 L0,6 z" fill="#0B5E5D"/></marker><pattern id="ins" patternUnits="userSpaceOnUse" width="8" height="8"><rect width="8" height="8" fill="#F3E4B4"/><path d="M0 8 L8 0" stroke="#D9B86A" stroke-width="1.6"/></pattern><pattern id="soil" patternUnits="userSpaceOnUse" width="12" height="12"><rect width="12" height="12" fill="#E4D9C3"/><circle cx="3" cy="4" r="1" fill="#c9bd9f"/><circle cx="9" cy="9" r="1" fill="#c9bd9f"/></pattern><pattern id="conc" patternUnits="userSpaceOnUse" width="14" height="14"><rect width="14" height="14" fill="#D8D3C8"/><circle cx="4" cy="5" r="1.2" fill="#a39d90"/><circle cx="10" cy="11" r="1.2" fill="#a39d90"/></pattern></defs><text x="280.0" y="32" font-size="14" fill="#23211C" text-anchor="middle" font-weight="700">Gavl (gavltrekant)</text><text x="280" y="56" font-size="11" fill="#9a9281" text-anchor="middle" font-weight="500">Husets trekantede endevæg op under taget</text><rect x="170" y="150" width="220" height="90" fill="#D08A66" stroke="#b06a45" stroke-width="1.4" rx="0"/><line x1="170" y1="168" x2="390" y2="168" stroke="#b06a45" stroke-width="0.8"/><line x1="170" y1="190" x2="390" y2="190" stroke="#b06a45" stroke-width="0.8"/><line x1="170" y1="212" x2="390" y2="212" stroke="#b06a45" stroke-width="0.8"/><polygon points="170,150 280,72 390,150" fill="#EADCC8" stroke="#b06a45" stroke-width="1.4"/><line x1="196" y1="150" x2="280" y2="80" stroke="#b06a45" stroke-width="0"/><line x1="196" y1="150" x2="280" y2="80" stroke="#b06a45" stroke-width="0"/><line x1="170" y1="150" x2="280" y2="72" stroke="#23211C" stroke-width="3"/><line x1="280" y1="72" x2="390" y2="150" stroke="#23211C" stroke-width="3"/><text x="280" y="120" font-size="11" fill="#23211C" text-anchor="middle" font-weight="700">gavltrekant</text><text x="140" y="120" font-size="9" fill="#23211C" text-anchor="end" font-weight="500">vindskede</text><line x1="150" y1="118" x2="182" y2="108" stroke="#23211C" stroke-width="1.6" marker-end="url(#aO)"/><text x="280" y="258" font-size="10" fill="#9a9281" text-anchor="middle" font-weight="500">I hver ende af huset, op mod tagryggen.</text></svg>