<svg xmlns="http://www.w3.org/2000/svg" viewBox="0 0 560 212" font-family="Inter,system-ui,sans-serif"><rect width="560" height="212" fill="#FBF9F3"/><defs><marker id="aO" markerWidth="8" markerHeight="8" refX="6" refY="3" orient="auto"><path d="M0,0 L6,3 L0,6 z" fill="#D97B29"/></marker><marker id="aG" markerWidth="8" markerHeight="8" refX="6" refY="3" orient="auto"><path d="M0,0 L6,3 L0,6 z" fill="#0B5E5D"/></marker><marker id="aB" markerWidth="8" markerHeight="8" refX="6" refY="3" orient="auto"><path d="M0,0 L6,3 L0,6 z" fill="#3E87C0"/></marker><marker id="aR" markerWidth="8" markerHeight="8" refX="6" refY="3" orient="auto"><path d="M0,0 L6,3 L0,6 z" fill="#C0392B"/></marker><marker id="aK" markerWidth="8" markerHeight="8" refX="6" refY="3" orient="auto"><path d="M0,0 L6,3 L0,6 z" fill="#23211C"/></marker><pattern id="ins" patternUnits="userSpaceOnUse" width="8" height="8"><rect width="8" height="8" fill="#F3E4B4"/><path d="M0 8 L8 0" stroke="#D9B86A" stroke-width="1.6"/></pattern><pattern id="conc" patternUnits="userSpaceOnUse" width="14" height="14"><rect width="14" height="14" fill="#D8D3C8"/><circle cx="4" cy="5" r="1.2" fill="#a39d90"/><circle cx="10" cy="11" r="1.2" fill="#a39d90"/></pattern><pattern id="soil" patternUnits="userSpaceOnUse" width="12" height="12"><rect width="12" height="12" fill="#E4D9C3"/><circle cx="3" cy="4" r="1" fill="#c9bd9f"/><circle cx="9" cy="9" r="1" fill="#c9bd9f"/></pattern><pattern id="grav" patternUnits="userSpaceOnUse" width="10" height="10"><rect width="10" height="10" fill="#E8E2D4"/><circle cx="3" cy="3" r="1.6" fill="#a39d90"/><circle cx="8" cy="7" r="1.6" fill="#a39d90"/></pattern></defs><text x="280.0" y="32" font-size="14" fill="#23211C" text-anchor="middle" font-weight="700">Gulvvarme i terrændæk</text><text x="280" y="56" font-size="11" fill="#9a9281" text-anchor="middle" font-weight="500">Varmeslanger støbt ind i gulvet</text><rect x="70" y="80" width="420" height="34" fill="#EFE7D6" stroke="#23211C" stroke-width="1.2" rx="0"/><circle cx="88" cy="97" r="7" fill="#F4C9A0" stroke="#D97B29" stroke-width="1.4"/><circle cx="122" cy="97" r="7" fill="#F4C9A0" stroke="#D97B29" stroke-width="1.4"/><circle cx="156" cy="97" r="7" fill="#F4C9A0" stroke="#D97B29" stroke-width="1.4"/><circle cx="190" cy="97" r="7" fill="#F4C9A0" stroke="#D97B29" stroke-width="1.4"/><circle cx="224" cy="97" r="7" fill="#F4C9A0" stroke="#D97B29" stroke-width="1.4"/><circle cx="258" cy="97" r="7" fill="#F4C9A0" stroke="#D97B29" stroke-width="1.4"/><circle cx="292" cy="97" r="7" fill="#F4C9A0" stroke="#D97B29" stroke-width="1.4"/><circle cx="326" cy="97" r="7" fill="#F4C9A0" stroke="#D97B29" stroke-width="1.4"/><circle cx="360" cy="97" r="7" fill="#F4C9A0" stroke="#D97B29" stroke-width="1.4"/><circle cx="394" cy="97" r="7" fill="#F4C9A0" stroke="#D97B29" stroke-width="1.4"/><circle cx="428" cy="97" r="7" fill="#F4C9A0" stroke="#D97B29" stroke-width="1.4"/><circle cx="462" cy="97" r="7" fill="#F4C9A0" stroke="#D97B29" stroke-width="1.4"/><text x="280" y="102" font-size="9" fill="#23211C" text-anchor="middle" font-weight="500"></text><rect x="70" y="114" width="420" height="30" fill="url(#ins)" stroke="#D9B86A" stroke-width="1.2" rx="0"/><text x="490" y="134" font-size="9" fill="#23211C" text-anchor="middle" font-weight="500"></text><rect x="70" y="144" width="420" height="18" fill="url(#conc)" stroke="#23211C" stroke-width="1.2" rx="0"/><rect x="70" y="162" width="420" height="22" fill="url(#soil)" stroke="#c9bd9f" stroke-width="1" rx="0"/><text x="66" y="100" font-size="9" fill="#23211C" text-anchor="end" font-weight="500">slidlag</text><text x="66" y="132" font-size="9" fill="#23211C" text-anchor="end" font-weight="500">isolering</text><line x1="160" y1="88" x2="160" y2="66" stroke="#D97B29" stroke-width="2" marker-end="url(#aO)"/><line x1="280" y1="88" x2="280" y2="66" stroke="#D97B29" stroke-width="2" marker-end="url(#aO)"/><line x1="400" y1="88" x2="400" y2="66" stroke="#D97B29" stroke-width="2" marker-end="url(#aO)"/><text x="280" y="60" font-size="10" fill="#9a9281" text-anchor="middle" font-weight="500">varme stiger op i rummet</text></svg>