<svg xmlns="http://www.w3.org/2000/svg" viewBox="0 0 560 345" font-family="Inter,system-ui,sans-serif"><rect width="560" height="345" fill="#FBF9F3"/><defs><pattern id="ins" patternUnits="userSpaceOnUse" width="8" height="8"><rect width="8" height="8" fill="#F3E4B4"/><path d="M0 8 L8 0" stroke="#D9B86A" stroke-width="1.6"/></pattern></defs><text x="95" y="60" font-size="15" fill="#9a9281" text-anchor="middle" font-weight="700">UDE</text><text x="465" y="60" font-size="15" fill="#9a9281" text-anchor="middle" font-weight="700">INDE</text><clipPath id="clip1"><rect x="200" y="45" width="48" height="245"/></clipPath><g clip-path="url(#clip1)"><rect x="200" y="45" width="48" height="245" fill="#EADCC8" stroke="none" stroke-width="1" rx="0"/><rect x="200" y="45" width="32" height="13" fill="#D08A66" stroke="#b06a45" stroke-width="1" rx="0"/><rect x="234" y="45" width="32" height="13" fill="#D08A66" stroke="#b06a45" stroke-width="1" rx="0"/><rect x="183" y="60" width="32" height="13" fill="#D08A66" stroke="#b06a45" stroke-width="1" rx="0"/><rect x="217" y="60" width="32" height="13" fill="#D08A66" stroke="#b06a45" stroke-width="1" rx="0"/><rect x="200" y="75" width="32" height="13" fill="#D08A66" stroke="#b06a45" stroke-width="1" rx="0"/><rect x="234" y="75" width="32" height="13" fill="#D08A66" stroke="#b06a45" stroke-width="1" rx="0"/><rect x="183" y="90" width="32" height="13" fill="#D08A66" stroke="#b06a45" stroke-width="1" rx="0"/><rect x="217" y="90" width="32" height="13" fill="#D08A66" stroke="#b06a45" stroke-width="1" rx="0"/><rect x="200" y="105" width="32" height="13" fill="#D08A66" stroke="#b06a45" stroke-width="1" rx="0"/><rect x="234" y="105" width="32" height="13" fill="#D08A66" stroke="#b06a45" stroke-width="1" rx="0"/><rect x="183" y="120" width="32" height="13" fill="#D08A66" stroke="#b06a45" stroke-width="1" rx="0"/><rect x="217" y="120" width="32" height="13" fill="#D08A66" stroke="#b06a45" stroke-width="1" rx="0"/><rect x="200" y="135" width="32" height="13" fill="#D08A66" stroke="#b06a45" stroke-width="1" rx="0"/><rect x="234" y="135" width="32" height="13" fill="#D08A66" stroke="#b06a45" stroke-width="1" rx="0"/><rect x="183" y="150" width="32" height="13" fill="#D08A66" stroke="#b06a45" stroke-width="1" rx="0"/><rect x="217" y="150" width="32" height="13" fill="#D08A66" stroke="#b06a45" stroke-width="1" rx="0"/><rect x="200" y="165" width="32" height="13" fill="#D08A66" stroke="#b06a45" stroke-width="1" rx="0"/><rect x="234" y="165" width="32" height="13" fill="#D08A66" stroke="#b06a45" stroke-width="1" rx="0"/><rect x="183" y="180" width="32" height="13" fill="#D08A66" stroke="#b06a45" stroke-width="1" rx="0"/><rect x="217" y="180" width="32" height="13" fill="#D08A66" stroke="#b06a45" stroke-width="1" rx="0"/><rect x="200" y="195" width="32" height="13" fill="#D08A66" stroke="#b06a45" stroke-width="1" rx="0"/><rect x="234" y="195" width="32" height="13" fill="#D08A66" stroke="#b06a45" stroke-width="1" rx="0"/><rect x="183" y="210" width="32" height="13" fill="#D08A66" stroke="#b06a45" stroke-width="1" rx="0"/><rect x="217" y="210" width="32" height="13" fill="#D08A66" stroke="#b06a45" stroke-width="1" rx="0"/><rect x="200" y="225" width="32" height="13" fill="#D08A66" stroke="#b06a45" stroke-width="1" rx="0"/><rect x="234" y="225" width="32" height="13" fill="#D08A66" stroke="#b06a45" stroke-width="1" rx="0"/><rect x="183" y="240" width="32" height="13" fill="#D08A66" stroke="#b06a45" stroke-width="1" rx="0"/><rect x="217" y="240" width="32" height="13" fill="#D08A66" stroke="#b06a45" stroke-width="1" rx="0"/><rect x="200" y="255" width="32" height="13" fill="#D08A66" stroke="#b06a45" stroke-width="1" rx="0"/><rect x="234" y="255" width="32" height="13" fill="#D08A66" stroke="#b06a45" stroke-width="1" rx="0"/><rect x="183" y="270" width="32" height="13" fill="#D08A66" stroke="#b06a45" stroke-width="1" rx="0"/><rect x="217" y="270" width="32" height="13" fill="#D08A66" stroke="#b06a45" stroke-width="1" rx="0"/><rect x="200" y="285" width="32" height="13" fill="#D08A66" stroke="#b06a45" stroke-width="1" rx="0"/><rect x="234" y="285" width="32" height="13" fill="#D08A66" stroke="#b06a45" stroke-width="1" rx="0"/></g><rect x="200" y="45" width="48" height="245" fill="none" stroke="#23211C" stroke-width="1.5" rx="0"/><rect x="248" y="45" width="64" height="245" fill="url(#ins)" stroke="#23211C" stroke-width="1.2" rx="0"/><clipPath id="clip2"><rect x="312" y="45" width="48" height="245"/></clipPath><g clip-path="url(#clip2)"><rect x="312" y="45" width="48" height="245" fill="#EADCC8" stroke="none" stroke-width="1" rx="0"/><rect x="312" y="45" width="38" height="18" fill="#E0CBA8" stroke="#bfa67e" stroke-width="1" rx="0"/><rect x="352" y="45" width="38" height="18" fill="#E0CBA8" stroke="#bfa67e" stroke-width="1" rx="0"/><rect x="292" y="65" width="38" height="18" fill="#E0CBA8" stroke="#bfa67e" stroke-width="1" rx="0"/><rect x="332" y="65" width="38" height="18" fill="#E0CBA8" stroke="#bfa67e" stroke-width="1" rx="0"/><rect x="312" y="85" width="38" height="18" fill="#E0CBA8" stroke="#bfa67e" stroke-width="1" rx="0"/><rect x="352" y="85" width="38" height="18" fill="#E0CBA8" stroke="#bfa67e" stroke-width="1" rx="0"/><rect x="292" y="105" width="38" height="18" fill="#E0CBA8" stroke="#bfa67e" stroke-width="1" rx="0"/><rect x="332" y="105" width="38" height="18" fill="#E0CBA8" stroke="#bfa67e" stroke-width="1" rx="0"/><rect x="312" y="125" width="38" height="18" fill="#E0CBA8" stroke="#bfa67e" stroke-width="1" rx="0"/><rect x="352" y="125" width="38" height="18" fill="#E0CBA8" stroke="#bfa67e" stroke-width="1" rx="0"/><rect x="292" y="145" width="38" height="18" fill="#E0CBA8" stroke="#bfa67e" stroke-width="1" rx="0"/><rect x="332" y="145" width="38" height="18" fill="#E0CBA8" stroke="#bfa67e" stroke-width="1" rx="0"/><rect x="312" y="165" width="38" height="18" fill="#E0CBA8" stroke="#bfa67e" stroke-width="1" rx="0"/><rect x="352" y="165" width="38" height="18" fill="#E0CBA8" stroke="#bfa67e" stroke-width="1" rx="0"/><rect x="292" y="185" width="38" height="18" fill="#E0CBA8" stroke="#bfa67e" stroke-width="1" rx="0"/><rect x="332" y="185" width="38" height="18" fill="#E0CBA8" stroke="#bfa67e" stroke-width="1" rx="0"/><rect x="312" y="205" width="38" height="18" fill="#E0CBA8" stroke="#bfa67e" stroke-width="1" rx="0"/><rect x="352" y="205" width="38" height="18" fill="#E0CBA8" stroke="#bfa67e" stroke-width="1" rx="0"/><rect x="292" y="225" width="38" height="18" fill="#E0CBA8" stroke="#bfa67e" stroke-width="1" rx="0"/><rect x="332" y="225" width="38" height="18" fill="#E0CBA8" stroke="#bfa67e" stroke-width="1" rx="0"/><rect x="312" y="245" width="38" height="18" fill="#E0CBA8" stroke="#bfa67e" stroke-width="1" rx="0"/><rect x="352" y="245" width="38" height="18" fill="#E0CBA8" stroke="#bfa67e" stroke-width="1" rx="0"/><rect x="292" y="265" width="38" height="18" fill="#E0CBA8" stroke="#bfa67e" stroke-width="1" rx="0"/><rect x="332" y="265" width="38" height="18" fill="#E0CBA8" stroke="#bfa67e" stroke-width="1" rx="0"/><rect x="312" y="285" width="38" height="18" fill="#E0CBA8" stroke="#bfa67e" stroke-width="1" rx="0"/><rect x="352" y="285" width="38" height="18" fill="#E0CBA8" stroke="#bfa67e" stroke-width="1" rx="0"/></g><rect x="312" y="45" width="48" height="245" fill="none" stroke="#23211C" stroke-width="1.5" rx="0"/><path d="M225,115 L268,115 L278,122 L288,115 L335,115" stroke="#23211C" stroke-width="2.5" fill="none"/><path d="M225,215 L268,215 L278,222 L288,215 L335,215" stroke="#23211C" stroke-width="2.5" fill="none"/><path transform="translate(160,120) scale(1.0)" d="M0,-7 C3,-3 5,0 5,3 a5,5 0 1,1 -10,0 C-5,0 -3,-3 0,-7 z" fill="#3E87C0"/><path transform="translate(150,165) scale(0.8)" d="M0,-7 C3,-3 5,0 5,3 a5,5 0 1,1 -10,0 C-5,0 -3,-3 0,-7 z" fill="#3E87C0"/><text x="112" y="152" font-size="11" fill="#3E87C0" text-anchor="start" font-weight="500">slagregn</text><text x="224" y="318" font-size="13" fill="#4a463d" text-anchor="middle" font-weight="700">Formur</text><line x1="224" y1="295" x2="224" y2="305" stroke="#9a9281" stroke-width="1"/><text x="224" y="329" font-size="10.5" fill="#9a9281" text-anchor="middle" font-weight="500">(vejrskærm)</text><text x="280" y="32" font-size="12.5" fill="#4a463d" text-anchor="middle" font-weight="700">Hulrum + isolering</text><line x1="280" y1="36" x2="280" y2="44" stroke="#9a9281" stroke-width="1"/><text x="336" y="318" font-size="13" fill="#4a463d" text-anchor="middle" font-weight="700">Bagmur</text><line x1="336" y1="295" x2="336" y2="305" stroke="#9a9281" stroke-width="1"/><text x="337" y="329" font-size="10.5" fill="#9a9281" text-anchor="middle" font-weight="500">(bærende)</text><text x="420" y="110" font-size="12.5" fill="#0B5E5D" text-anchor="start" font-weight="700">Murbinder</text><line x1="416" y1="113" x2="340" y2="114" stroke="#9a9281" stroke-width="1"/></svg>