<svg xmlns="http://www.w3.org/2000/svg" viewBox="0 0 560 244" font-family="Inter,system-ui,sans-serif"><rect width="560" height="244" fill="#FBF9F3"/><defs><marker id="aO" markerWidth="8" markerHeight="8" refX="6" refY="3" orient="auto"><path d="M0,0 L6,3 L0,6 z" fill="#D97B29"/></marker><marker id="aG" markerWidth="8" markerHeight="8" refX="6" refY="3" orient="auto"><path d="M0,0 L6,3 L0,6 z" fill="#0B5E5D"/></marker><marker id="aB" markerWidth="8" markerHeight="8" refX="6" refY="3" orient="auto"><path d="M0,0 L6,3 L0,6 z" fill="#3E87C0"/></marker><marker id="aR" markerWidth="8" markerHeight="8" refX="6" refY="3" orient="auto"><path d="M0,0 L6,3 L0,6 z" fill="#C0392B"/></marker><marker id="aK" markerWidth="8" markerHeight="8" refX="6" refY="3" orient="auto"><path d="M0,0 L6,3 L0,6 z" fill="#23211C"/></marker><pattern id="ins" patternUnits="userSpaceOnUse" width="8" height="8"><rect width="8" height="8" fill="#F3E4B4"/><path d="M0 8 L8 0" stroke="#D9B86A" stroke-width="1.6"/></pattern><pattern id="conc" patternUnits="userSpaceOnUse" width="14" height="14"><rect width="14" height="14" fill="#D8D3C8"/><circle cx="4" cy="5" r="1.2" fill="#a39d90"/><circle cx="10" cy="11" r="1.2" fill="#a39d90"/></pattern><pattern id="soil" patternUnits="userSpaceOnUse" width="12" height="12"><rect width="12" height="12" fill="#E4D9C3"/><circle cx="3" cy="4" r="1" fill="#c9bd9f"/><circle cx="9" cy="9" r="1" fill="#c9bd9f"/></pattern><pattern id="grav" patternUnits="userSpaceOnUse" width="10" height="10"><rect width="10" height="10" fill="#E8E2D4"/><circle cx="3" cy="3" r="1.6" fill="#a39d90"/><circle cx="8" cy="7" r="1.6" fill="#a39d90"/></pattern></defs><text x="280.0" y="32" font-size="14" fill="#23211C" text-anchor="middle" font-weight="700">Radonsikring</text><rect x="80" y="60" width="400" height="70" fill="#F3EEE2" stroke="#23211C" stroke-width="1.2" rx="0"/><text x="280" y="100" font-size="12" fill="#9a9281" text-anchor="middle" font-weight="600">Bolig</text><rect x="80" y="130" width="400" height="16" fill="url(#conc)" stroke="#23211C" stroke-width="1.2" rx="0"/><rect x="80" y="146" width="400" height="7" fill="#C0392B" stroke="#8a2a20" stroke-width="1" rx="0"/><text x="280" y="179" font-size="10" fill="#C0392B" text-anchor="middle" font-weight="700">radonmembran (lufttæt)</text><rect x="80" y="153" width="400" height="70" fill="url(#soil)" stroke="#c9bd9f" stroke-width="1" rx="0"/><line x1="160" y1="210" x2="160" y2="158" stroke="#0B5E5D" stroke-width="2" marker-end="url(#aG)"/><text x="160" y="228" font-size="8" fill="#9a9281" text-anchor="middle" font-weight="500"></text><line x1="280" y1="210" x2="280" y2="158" stroke="#0B5E5D" stroke-width="2" marker-end="url(#aG)"/><text x="280" y="228" font-size="8" fill="#9a9281" text-anchor="middle" font-weight="500"></text><line x1="400" y1="210" x2="400" y2="158" stroke="#0B5E5D" stroke-width="2" marker-end="url(#aG)"/><text x="400" y="228" font-size="8" fill="#9a9281" text-anchor="middle" font-weight="500"></text><text x="280" y="224" font-size="10" fill="#23211C" text-anchor="middle" font-weight="600">radon (jordluft) holdes ude</text></svg>