<svg xmlns="http://www.w3.org/2000/svg" viewBox="0 0 560 315" font-family="Inter,system-ui,sans-serif"><rect width="560" height="315" fill="#FBF9F3"/><defs><pattern id="conc" patternUnits="userSpaceOnUse" width="14" height="14"><rect width="14" height="14" fill="#D8D3C8"/><circle cx="4" cy="5" r="1.2" fill="#a39d90"/><circle cx="10" cy="11" r="1.2" fill="#a39d90"/></pattern><pattern id="soil" patternUnits="userSpaceOnUse" width="16" height="16"><rect width="16" height="16" fill="#C7AD8C"/><circle cx="4" cy="6" r="1.4" fill="#9c8366"/><circle cx="12" cy="12" r="1.4" fill="#9c8366"/><circle cx="9" cy="2" r="1" fill="#9c8366"/></pattern><marker id="dm" markerWidth="7" markerHeight="7" refX="5" refY="2.5" orient="auto"><path d="M0,0 L5,2.5 L0,5 z" fill="#4a463d"/></marker></defs><rect x="0" y="190" width="560" height="120" fill="url(#soil)" stroke="none" stroke-width="1" rx="0"/><rect x="238" y="188" width="84" height="96" fill="url(#conc)" stroke="#23211C" stroke-width="1.5" rx="0"/><rect x="232" y="148" width="96" height="42" fill="#D8D3C8" stroke="#23211C" stroke-width="1.5" rx="0"/><clipPath id="clip10"><rect x="240" y="38" width="80" height="110"/></clipPath><g clip-path="url(#clip10)"><rect x="240" y="38" width="80" height="110" fill="#EADCC8" stroke="none" stroke-width="1" rx="0"/><rect x="240" y="38" width="32" height="13" fill="#D08A66" stroke="#b06a45" stroke-width="1" rx="0"/><rect x="274" y="38" width="32" height="13" fill="#D08A66" stroke="#b06a45" stroke-width="1" rx="0"/><rect x="308" y="38" width="32" height="13" fill="#D08A66" stroke="#b06a45" stroke-width="1" rx="0"/><rect x="223" y="53" width="32" height="13" fill="#D08A66" stroke="#b06a45" stroke-width="1" rx="0"/><rect x="257" y="53" width="32" height="13" fill="#D08A66" stroke="#b06a45" stroke-width="1" rx="0"/><rect x="291" y="53" width="32" height="13" fill="#D08A66" stroke="#b06a45" stroke-width="1" rx="0"/><rect x="240" y="68" width="32" height="13" fill="#D08A66" stroke="#b06a45" stroke-width="1" rx="0"/><rect x="274" y="68" width="32" height="13" fill="#D08A66" stroke="#b06a45" stroke-width="1" rx="0"/><rect x="308" y="68" width="32" height="13" fill="#D08A66" stroke="#b06a45" stroke-width="1" rx="0"/><rect x="223" y="83" width="32" height="13" fill="#D08A66" stroke="#b06a45" stroke-width="1" rx="0"/><rect x="257" y="83" width="32" height="13" fill="#D08A66" stroke="#b06a45" stroke-width="1" rx="0"/><rect x="291" y="83" width="32" height="13" fill="#D08A66" stroke="#b06a45" stroke-width="1" rx="0"/><rect x="240" y="98" width="32" height="13" fill="#D08A66" stroke="#b06a45" stroke-width="1" rx="0"/><rect x="274" y="98" width="32" height="13" fill="#D08A66" stroke="#b06a45" stroke-width="1" rx="0"/><rect x="308" y="98" width="32" height="13" fill="#D08A66" stroke="#b06a45" stroke-width="1" rx="0"/><rect x="223" y="113" width="32" height="13" fill="#D08A66" stroke="#b06a45" stroke-width="1" rx="0"/><rect x="257" y="113" width="32" height="13" fill="#D08A66" stroke="#b06a45" stroke-width="1" rx="0"/><rect x="291" y="113" width="32" height="13" fill="#D08A66" stroke="#b06a45" stroke-width="1" rx="0"/><rect x="240" y="128" width="32" height="13" fill="#D08A66" stroke="#b06a45" stroke-width="1" rx="0"/><rect x="274" y="128" width="32" height="13" fill="#D08A66" stroke="#b06a45" stroke-width="1" rx="0"/><rect x="308" y="128" width="32" height="13" fill="#D08A66" stroke="#b06a45" stroke-width="1" rx="0"/><rect x="223" y="143" width="32" height="13" fill="#D08A66" stroke="#b06a45" stroke-width="1" rx="0"/><rect x="257" y="143" width="32" height="13" fill="#D08A66" stroke="#b06a45" stroke-width="1" rx="0"/><rect x="291" y="143" width="32" height="13" fill="#D08A66" stroke="#b06a45" stroke-width="1" rx="0"/></g><rect x="240" y="38" width="80" height="110" fill="none" stroke="#23211C" stroke-width="1.5" rx="0"/><line x1="0" y1="190" x2="560" y2="190" stroke="#23211C" stroke-width="2"/><line x1="20" y1="190" x2="14" y2="182" stroke="#7c8a4f" stroke-width="2"/><line x1="54" y1="190" x2="48" y2="182" stroke="#7c8a4f" stroke-width="2"/><line x1="88" y1="190" x2="82" y2="182" stroke="#7c8a4f" stroke-width="2"/><line x1="122" y1="190" x2="116" y2="182" stroke="#7c8a4f" stroke-width="2"/><line x1="156" y1="190" x2="150" y2="182" stroke="#7c8a4f" stroke-width="2"/><line x1="190" y1="190" x2="184" y2="182" stroke="#7c8a4f" stroke-width="2"/><line x1="224" y1="190" x2="218" y2="182" stroke="#7c8a4f" stroke-width="2"/><line x1="360" y1="190" x2="354" y2="182" stroke="#7c8a4f" stroke-width="2"/><line x1="394" y1="190" x2="388" y2="182" stroke="#7c8a4f" stroke-width="2"/><line x1="428" y1="190" x2="422" y2="182" stroke="#7c8a4f" stroke-width="2"/><line x1="462" y1="190" x2="456" y2="182" stroke="#7c8a4f" stroke-width="2"/><line x1="496" y1="190" x2="490" y2="182" stroke="#7c8a4f" stroke-width="2"/><line x1="530" y1="190" x2="524" y2="182" stroke="#7c8a4f" stroke-width="2"/><text x="60" y="182" font-size="12" fill="#4a463d" text-anchor="start" font-weight="500">Terræn</text><text x="150" y="172" font-size="12.5" fill="#4a463d" text-anchor="end" font-weight="700">Sokkel (synlig)</text><line x1="154" y1="168" x2="230" y2="166" stroke="#9a9281" stroke-width="1"/><rect x="48" y="224" width="116" height="42" fill="#FBF9F3" stroke="#9a9281" stroke-width="1" rx="6"/><text x="150" y="242" font-size="12.5" fill="#4a463d" text-anchor="end" font-weight="700">Fundament</text><text x="150" y="258" font-size="11" fill="#9a9281" text-anchor="end" font-weight="500">(under jord)</text><line x1="154" y1="246" x2="236" y2="240" stroke="#9a9281" stroke-width="1"/><line x1="420" y1="190" x2="420" y2="284" stroke="#4a463d" stroke-width="1.6" marker-start="url(#dm)" marker-end="url(#dm)"/><line x1="322" y1="284" x2="420" y2="284" stroke="#9a9281" stroke-width="1" stroke-dasharray="3 3"/><rect x="426" y="216" width="124" height="46" fill="#FBF9F3" stroke="#9a9281" stroke-width="1" rx="6"/><text x="436" y="236" font-size="12" fill="#4a463d" text-anchor="start" font-weight="600">frostfri dybde</text><text x="436" y="252" font-size="12" fill="#4a463d" text-anchor="start" font-weight="700">ca. 0,9 m</text></svg>