<svg xmlns="http://www.w3.org/2000/svg" viewBox="0 0 560 244" font-family="Inter,system-ui,sans-serif"><rect width="560" height="244" fill="#FBF9F3"/><defs><marker id="aO" markerWidth="8" markerHeight="8" refX="6" refY="3" orient="auto"><path d="M0,0 L6,3 L0,6 z" fill="#D97B29"/></marker><marker id="aG" markerWidth="8" markerHeight="8" refX="6" refY="3" orient="auto"><path d="M0,0 L6,3 L0,6 z" fill="#0B5E5D"/></marker><marker id="aB" markerWidth="8" markerHeight="8" refX="6" refY="3" orient="auto"><path d="M0,0 L6,3 L0,6 z" fill="#3E87C0"/></marker><marker id="aR" markerWidth="8" markerHeight="8" refX="6" refY="3" orient="auto"><path d="M0,0 L6,3 L0,6 z" fill="#C0392B"/></marker><marker id="aK" markerWidth="8" markerHeight="8" refX="6" refY="3" orient="auto"><path d="M0,0 L6,3 L0,6 z" fill="#23211C"/></marker><pattern id="ins" patternUnits="userSpaceOnUse" width="8" height="8"><rect width="8" height="8" fill="#F3E4B4"/><path d="M0 8 L8 0" stroke="#D9B86A" stroke-width="1.6"/></pattern><pattern id="conc" patternUnits="userSpaceOnUse" width="14" height="14"><rect width="14" height="14" fill="#D8D3C8"/><circle cx="4" cy="5" r="1.2" fill="#a39d90"/><circle cx="10" cy="11" r="1.2" fill="#a39d90"/></pattern><pattern id="soil" patternUnits="userSpaceOnUse" width="12" height="12"><rect width="12" height="12" fill="#E4D9C3"/><circle cx="3" cy="4" r="1" fill="#c9bd9f"/><circle cx="9" cy="9" r="1" fill="#c9bd9f"/></pattern><pattern id="grav" patternUnits="userSpaceOnUse" width="10" height="10"><rect width="10" height="10" fill="#E8E2D4"/><circle cx="3" cy="3" r="1.6" fill="#a39d90"/><circle cx="8" cy="7" r="1.6" fill="#a39d90"/></pattern></defs><text x="280.0" y="32" font-size="14" fill="#23211C" text-anchor="middle" font-weight="700">Svind- vs. sætningsrevner</text><rect x="50" y="70" width="200" height="120" fill="#EADCC8" stroke="#23211C" stroke-width="1.4" rx="0"/><path d="M130,165 l3,8 l-1,14" fill="none" stroke="#9a9281" stroke-width="1"/><path d="M191,170 l4,7 l7,5" fill="none" stroke="#9a9281" stroke-width="1"/><path d="M190,123 l3,9 l-6,12" fill="none" stroke="#9a9281" stroke-width="1"/><path d="M208,160 l1,12 l8,7" fill="none" stroke="#9a9281" stroke-width="1"/><path d="M129,109 l13,14 l0,5" fill="none" stroke="#9a9281" stroke-width="1"/><path d="M86,110 l10,15 l-11,9" fill="none" stroke="#9a9281" stroke-width="1"/><path d="M77,124 l1,15 l11,11" fill="none" stroke="#9a9281" stroke-width="1"/><text x="150" y="210" font-size="11" fill="#23211C" text-anchor="middle" font-weight="700">Svind / krakelering</text><text x="150" y="228" font-size="10" fill="#9a9281" text-anchor="middle" font-weight="500">fine, kosmetiske</text><rect x="310" y="70" width="200" height="120" fill="#EADCC8" stroke="#23211C" stroke-width="1.4" rx="0"/><line x1="310" y1="70" x2="510" y2="70" stroke="#cabfa8" stroke-width="1"/><line x1="310" y1="94" x2="510" y2="94" stroke="#cabfa8" stroke-width="1"/><line x1="310" y1="118" x2="510" y2="118" stroke="#cabfa8" stroke-width="1"/><line x1="310" y1="142" x2="510" y2="142" stroke="#cabfa8" stroke-width="1"/><line x1="310" y1="166" x2="510" y2="166" stroke="#cabfa8" stroke-width="1"/><path d="M360,190 L360,166 L386,166 L386,142 L412,142 L412,118 L438,118 L438,94" fill="none" stroke="#C0392B" stroke-width="2.6"/><text x="410" y="210" font-size="11" fill="#23211C" text-anchor="middle" font-weight="700">Sætningsrevne</text><text x="410" y="228" font-size="10" fill="#C0392B" text-anchor="middle" font-weight="500">trappeformet, alvorlig</text></svg>