<svg xmlns="http://www.w3.org/2000/svg" viewBox="0 0 560 360" font-family="Inter,system-ui,sans-serif"><rect width="560" height="360" fill="#FBF9F3"/><defs><marker id="aO" markerWidth="8" markerHeight="8" refX="6" refY="3" orient="auto"><path d="M0,0 L6,3 L0,6 z" fill="#D97B29"/></marker><marker id="aG" markerWidth="8" markerHeight="8" refX="6" refY="3" orient="auto"><path d="M0,0 L6,3 L0,6 z" fill="#0B5E5D"/></marker><marker id="aB" markerWidth="8" markerHeight="8" refX="6" refY="3" orient="auto"><path d="M0,0 L6,3 L0,6 z" fill="#3E87C0"/></marker><marker id="aR" markerWidth="8" markerHeight="8" refX="6" refY="3" orient="auto"><path d="M0,0 L6,3 L0,6 z" fill="#C0392B"/></marker><marker id="aK" markerWidth="8" markerHeight="8" refX="6" refY="3" orient="auto"><path d="M0,0 L6,3 L0,6 z" fill="#23211C"/></marker><pattern id="ins" patternUnits="userSpaceOnUse" width="8" height="8"><rect width="8" height="8" fill="#F3E4B4"/><path d="M0 8 L8 0" stroke="#D9B86A" stroke-width="1.6"/></pattern><pattern id="conc" patternUnits="userSpaceOnUse" width="14" height="14"><rect width="14" height="14" fill="#D8D3C8"/><circle cx="4" cy="5" r="1.2" fill="#a39d90"/><circle cx="10" cy="11" r="1.2" fill="#a39d90"/></pattern><pattern id="soil" patternUnits="userSpaceOnUse" width="12" height="12"><rect width="12" height="12" fill="#E4D9C3"/><circle cx="3" cy="4" r="1" fill="#c9bd9f"/><circle cx="9" cy="9" r="1" fill="#c9bd9f"/></pattern><pattern id="grav" patternUnits="userSpaceOnUse" width="10" height="10"><rect width="10" height="10" fill="#E8E2D4"/><circle cx="3" cy="3" r="1.6" fill="#a39d90"/><circle cx="8" cy="7" r="1.6" fill="#a39d90"/></pattern></defs><text x="280.0" y="32" font-size="14" fill="#23211C" text-anchor="middle" font-weight="700">Tagrende og nedløb</text><polygon points="120,70 360,70 320,150 80,150" fill="#D08A66" stroke="#b06a45" stroke-width="1.4"/><text x="240" y="108" font-size="10" fill="#23211C" text-anchor="middle" font-weight="500">tagflade</text><path d="M70,156 q-10,10 0,20 l250,0 q10,-10 0,-20" fill="#cfd8dc" stroke="#23211C" stroke-width="1.6"/><text x="180" y="150" font-size="10" fill="#23211C" text-anchor="middle" font-weight="600">tagrende</text><rect x="60" y="176" width="16" height="150" fill="#cfd8dc" stroke="#23211C" stroke-width="1.4" rx="0"/><text x="120" y="300" font-size="10" fill="#9a9281" text-anchor="start" font-weight="500">nedløb leder vandet væk</text><line x1="150" y1="140" x2="95" y2="168" stroke="#3E87C0" stroke-width="2" marker-end="url(#aB)"/><line x1="68" y1="330" x2="68" y2="355" stroke="#3E87C0" stroke-width="2.4" marker-end="url(#aB)"/><rect x="40" y="326" width="460" height="8" fill="url(#soil)" stroke="#c9bd9f" stroke-width="1" rx="0"/><line x1="76" y1="344" x2="140" y2="344" stroke="#3E87C0" stroke-width="2.2" marker-end="url(#aB)"/></svg>