<svg xmlns="http://www.w3.org/2000/svg" viewBox="0 0 560 252" font-family="Inter,system-ui,sans-serif"><rect width="560" height="252" fill="#FBF9F3"/><defs><marker id="aO" markerWidth="8" markerHeight="8" refX="6" refY="3" orient="auto"><path d="M0,0 L6,3 L0,6 z" fill="#D97B29"/></marker><marker id="aB" markerWidth="8" markerHeight="8" refX="6" refY="3" orient="auto"><path d="M0,0 L6,3 L0,6 z" fill="#3E87C0"/></marker><pattern id="conc" patternUnits="userSpaceOnUse" width="14" height="14"><rect width="14" height="14" fill="#D8D3C8"/><circle cx="4" cy="5" r="1.2" fill="#a39d90"/><circle cx="10" cy="11" r="1.2" fill="#a39d90"/></pattern></defs><text x="280.0" y="32" font-size="14" fill="#23211C" text-anchor="middle" font-weight="700">Yderdør</text><text x="280" y="54" font-size="11" fill="#9a9281" text-anchor="middle" font-weight="500">Udvendig dør — bundstykket rådner ofte først</text><rect x="150" y="80" width="260" height="150" fill="url(#conc)" stroke="#23211C" stroke-width="1.4" rx="0"/><rect x="235" y="92" width="90" height="138" fill="#C9A06B" stroke="#8a6b42" stroke-width="1.6" rx="0"/><rect x="247" y="104" width="66" height="114" fill="#EADCC8" stroke="#8a6b42" stroke-width="1.4" rx="0"/><rect x="258" y="118" width="44" height="40" fill="#dfd3bf" stroke="#8a6b42" stroke-width="1" rx="0"/><rect x="258" y="166" width="44" height="30" fill="#dfd3bf" stroke="#8a6b42" stroke-width="1" rx="0"/><circle cx="305" cy="165" r="3" fill="#23211C" stroke="#23211C" stroke-width="1"/><rect x="247" y="214" width="66" height="10" fill="#C0392B" stroke="#8a2a20" stroke-width="1.2" rx="0"/><text x="360" y="150" font-size="9" fill="#23211C" text-anchor="start" font-weight="500">dørplade</text><line x1="358" y1="150" x2="318" y2="150" stroke="#23211C" stroke-width="1.4" marker-end="url(#aO)"/><text x="360" y="219" font-size="9" fill="#C0392B" text-anchor="start" font-weight="700">bundstykke</text><line x1="358" y1="219" x2="316" y2="219" stroke="#C0392B" stroke-width="1.4" marker-end="url(#aO)"/><text x="225" y="150" font-size="9" fill="#23211C" text-anchor="end" font-weight="500">karm</text></svg>